<svg width="120" height="52" viewBox="0 0 120 52" fill="none" xmlns="http://www.w3.org/2000/svg">
<path d="M3.856 17.192C6 17.192 7.52 15.624 7.52 13.416V6.008H5.536V13.288C5.536 14.52 4.768 15.384 3.68 15.384C2.848 15.384 2 14.824 1.616 14.056L0.272 15.368C0.992 16.44 2.48 17.192 3.856 17.192ZM13.7595 17.192C16.1595 17.192 18.1915 15.208 18.1915 12.856C18.1915 10.504 16.1595 8.536 13.7595 8.536C11.3595 8.536 9.3275 10.504 9.3275 12.856C9.3275 15.208 11.3595 17.192 13.7595 17.192ZM13.7595 15.528C12.3835 15.528 11.2315 14.312 11.2315 12.856C11.2315 11.416 12.3835 10.2 13.7595 10.2C15.1195 10.2 16.2715 11.416 16.2715 12.856C16.2715 14.312 15.1195 15.528 13.7595 15.528ZM24.3965 8.536C23.2925 8.536 22.3165 9.064 21.8205 9.864V5.816H19.8685V17H21.8205V11.992C21.8205 11 22.7325 10.2 23.8365 10.2C24.8605 10.2 25.5805 11 25.5805 12.12V17H27.4685V11.736C27.4685 9.864 26.2045 8.536 24.3965 8.536ZM33.1876 8.536C32.1476 8.536 31.0596 8.824 29.8916 9.4L30.5636 10.76C31.2676 10.408 32.0196 10.136 32.8036 10.136C34.3076 10.136 34.8356 11.064 34.8356 12.024V12.248C34.0836 11.96 33.2676 11.8 32.5156 11.8C30.6596 11.8 29.1396 12.92 29.1396 14.552C29.1396 16.152 30.4676 17.192 32.2276 17.192C33.1876 17.192 34.2276 16.776 34.8356 16.008V17H36.7396V12.024C36.7396 9.928 35.3796 8.536 33.1876 8.536ZM32.6596 15.768C31.7316 15.768 31.0436 15.272 31.0436 14.488C31.0436 13.704 31.8276 13.16 32.8036 13.16C33.5396 13.16 34.2276 13.272 34.8356 13.48V14.408C34.6116 15.288 33.6036 15.768 32.6596 15.768ZM43.3653 8.536C42.2773 8.536 41.3173 9.064 40.8053 9.832V8.728H38.8533V17H40.8053V11.768C40.9333 10.888 41.7812 10.2 42.8053 10.2C43.8293 10.2 44.5493 11 44.5493 12.12V17H46.4373V11.736C46.4373 9.864 45.1733 8.536 43.3653 8.536ZM52.4124 15.464C51.2284 15.464 50.3644 14.664 50.1244 13.528H56.3644C56.3644 10.472 54.8764 8.536 52.3164 8.536C49.9644 8.536 48.1084 10.36 48.1084 12.84C48.1084 15.384 50.0604 17.192 52.4284 17.192C53.6284 17.192 55.0684 16.68 55.7884 15.912L54.5564 14.632C54.0924 15.112 53.1804 15.464 52.4124 15.464ZM52.3964 10.264C53.5644 10.264 54.2684 11 54.4924 12.04H50.1404C50.4284 10.952 51.3084 10.264 52.3964 10.264ZM61.1124 17.192C63.0484 17.192 64.3604 16.168 64.3604 14.584C64.3604 12.856 62.8564 12.376 61.4644 11.992C60.2004 11.624 59.7684 11.464 59.7684 10.936C59.7684 10.472 60.2964 10.2 60.9844 10.2C61.7044 10.2 62.5524 10.456 63.3364 10.952L64.1524 9.528C63.2564 8.936 62.1204 8.536 60.9844 8.536C59.1444 8.536 57.8644 9.592 57.8644 11.144C57.8804 12.616 59.0164 13.128 60.8084 13.592C61.7524 13.848 62.4724 14.056 62.4724 14.696C62.4724 15.208 61.9284 15.544 61.1444 15.544C60.1044 15.544 59.1764 15.16 58.3764 14.584L57.4964 15.944C58.4884 16.744 59.8484 17.192 61.1124 17.192ZM70.7956 17H72.7956V9.656L76.4116 16.36L80.0436 9.656V17H82.0276V6.008H80.0436L76.4116 12.712L72.7956 6.008H70.7956V17ZM85.3921 7.48C86.0001 7.48 86.4961 6.952 86.4961 6.36C86.4961 5.768 86.0001 5.256 85.3921 5.256C84.7681 5.256 84.2721 5.768 84.2721 6.36C84.2721 6.952 84.7681 7.48 85.3921 7.48ZM84.4001 17H86.3521V8.728H84.4001V17ZM96.3175 8.728H94.0135L90.4295 12.648V5.816H88.4775V17H90.4295V14.936L91.5975 13.704L93.9335 17H96.2055L92.9095 12.424L96.3175 8.728ZM101.094 8.536C100.054 8.536 98.9659 8.824 97.7979 9.4L98.4699 10.76C99.1739 10.408 99.9259 10.136 100.71 10.136C102.214 10.136 102.742 11.064 102.742 12.024V12.248C101.99 11.96 101.174 11.8 100.422 11.8C98.5659 11.8 97.0459 12.92 97.0459 14.552C97.0459 16.152 98.3739 17.192 100.134 17.192C101.094 17.192 102.134 16.776 102.742 16.008V17H104.646V12.024C104.646 9.928 103.286 8.536 101.094 8.536ZM100.566 15.768C99.6379 15.768 98.9499 15.272 98.9499 14.488C98.9499 13.704 99.7339 13.16 100.71 13.16C101.446 13.16 102.134 13.272 102.742 13.48V14.408C102.518 15.288 101.51 15.768 100.566 15.768ZM110.616 15.464C109.432 15.464 108.568 14.664 108.328 13.528H114.568C114.568 10.472 113.08 8.536 110.52 8.536C108.168 8.536 106.312 10.36 106.312 12.84C106.312 15.384 108.264 17.192 110.632 17.192C111.832 17.192 113.272 16.68 113.992 15.912L112.76 14.632C112.296 15.112 111.384 15.464 110.616 15.464ZM110.6 10.264C111.768 10.264 112.472 11 112.696 12.04H108.344C108.632 10.952 109.512 10.264 110.6 10.264ZM116.26 17H118.212V5.816H116.26V17Z" fill="#222222"/>
<path d="M27.25 44.168C29.658 44.168 31.38 42.418 31.38 39.954V34.382H29.952V39.926C29.952 41.648 28.832 42.88 27.25 42.88C25.654 42.88 24.534 41.648 24.534 39.926V34.382H23.12V39.954C23.12 42.418 24.828 44.168 27.25 44.168ZM37.5123 36.594C36.3923 36.594 35.4963 37.126 34.9363 38.008V34.214H33.5643V44H34.9363V42.74C35.4963 43.636 36.3923 44.168 37.5123 44.168C39.4163 44.168 40.8443 42.6 40.8443 40.374C40.8443 38.162 39.4163 36.594 37.5123 36.594ZM37.1763 42.964C35.8743 42.964 34.9363 41.886 34.9363 40.374C34.9363 38.862 35.8743 37.798 37.1763 37.798C38.5063 37.798 39.4443 38.862 39.4443 40.374C39.4443 41.886 38.5063 42.964 37.1763 42.964ZM45.5558 36.594C44.7578 36.594 43.8478 36.804 42.8118 37.322L43.3158 38.344C43.9458 38.022 44.6458 37.742 45.3598 37.742C46.8018 37.742 47.2218 38.708 47.2218 39.618V39.842C46.5218 39.604 45.7518 39.45 45.0378 39.45C43.4418 39.45 42.1398 40.416 42.1398 41.858C42.1398 43.272 43.2738 44.168 44.8138 44.168C45.6958 44.168 46.6898 43.762 47.2218 43.006V44H48.5798V39.618C48.5798 37.826 47.5018 36.594 45.5558 36.594ZM45.0798 43.076C44.1698 43.076 43.4698 42.6 43.4698 41.816C43.4698 41.032 44.2818 40.486 45.2478 40.486C45.9618 40.486 46.6338 40.584 47.2218 40.766V41.732C46.9838 42.628 45.9758 43.076 45.0798 43.076ZM54.2662 36.594C53.2722 36.594 52.3902 37.112 51.9562 37.84V34.214H50.5842V44H51.9562V39.506C51.9562 38.568 52.8662 37.798 53.9582 37.798C54.9382 37.798 55.6242 38.554 55.6242 39.632V44H56.9822V39.394C56.9822 37.756 55.8622 36.594 54.2662 36.594ZM66.9889 36.594C65.8689 36.594 64.9729 37.126 64.4129 38.008V36.762H63.0409V46.408H64.4129V42.74C64.9729 43.636 65.8689 44.168 66.9889 44.168C68.8929 44.168 70.3209 42.6 70.3209 40.374C70.3209 38.162 68.8929 36.594 66.9889 36.594ZM66.6529 42.964C65.3509 42.964 64.4129 41.886 64.4129 40.374C64.4129 38.862 65.3509 37.798 66.6529 37.798C67.9829 37.798 68.9209 38.862 68.9209 40.374C68.9209 41.886 67.9829 42.964 66.6529 42.964ZM73.4503 38.148V36.762H72.0643V44H73.4503V39.884C73.5763 38.624 74.6403 37.798 76.1383 37.798V36.594C74.8923 36.594 73.9123 37.196 73.4503 38.148ZM80.7017 44.168C82.7597 44.168 84.4957 42.432 84.4957 40.374C84.4957 38.316 82.7597 36.594 80.7017 36.594C78.6297 36.594 76.8797 38.316 76.8797 40.374C76.8797 42.432 78.6297 44.168 80.7017 44.168ZM80.7017 42.964C79.3717 42.964 78.2657 41.788 78.2657 40.374C78.2657 38.974 79.3717 37.798 80.7017 37.798C82.0037 37.798 83.1097 38.974 83.1097 40.374C83.1097 41.788 82.0037 42.964 80.7017 42.964ZM88.0214 35.964C88.0214 35.46 88.3574 35.096 88.7634 35.096C89.0714 35.096 89.3514 35.208 89.5054 35.362L90.0094 34.438C89.6174 34.116 89.0854 33.92 88.5674 33.92C87.4474 33.92 86.6634 34.732 86.6634 35.894V36.762H85.5714V37.938H86.6634V44H88.0214V37.938H89.7294V36.762H88.0214V35.964ZM91.8483 35.558C92.2963 35.558 92.6743 35.166 92.6743 34.718C92.6743 34.284 92.2963 33.892 91.8483 33.892C91.3723 33.892 91.0083 34.284 91.0083 34.718C91.0083 35.166 91.3723 35.558 91.8483 35.558ZM91.1483 44H92.5343V36.762H91.1483V44ZM94.5393 44H95.9113V34.214H94.5393V44ZM101.248 42.936C100.002 42.936 99.1199 42.068 98.9379 40.864H104.636C104.636 38.274 103.362 36.594 101.15 36.594C99.1479 36.594 97.5379 38.19 97.5379 40.36C97.5379 42.586 99.2459 44.168 101.262 44.168C102.284 44.168 103.544 43.734 104.188 43.048L103.32 42.152C102.886 42.6 102.004 42.936 101.248 42.936ZM101.206 37.826C102.452 37.826 103.138 38.638 103.292 39.758H98.9519C99.1759 38.582 100.086 37.826 101.206 37.826Z" fill="#9B9B9B"/>
<g clip-path="url(#clip0_64_33)">
<path d="M0 44.6662V48H3.33379L13.1707 38.163L9.8369 34.8292L0 44.6662Z" fill="#9B9B9B"/>
<path d="M15.74 34.3359L13.6642 32.26C13.3174 31.9133 12.7529 31.9133 12.4062 32.26L10.7793 33.8869L14.1131 37.2207L15.74 35.5938C16.0867 35.2471 16.0867 34.6826 15.74 34.3359Z" fill="#9B9B9B"/>
</g>
<defs>
<clipPath id="clip0_64_33">
<rect width="16" height="16" fill="white" transform="translate(0 32)"/>
</clipPath>
</defs>
</svg>
